<svg viewBox="0 0 700 420" width="700" height="420" xmlns="http://www.w3.org/2000/svg" style="font-family:-apple-system,BlinkMacSystemFont,'Segoe UI',sans-serif;background:#ffffff">
  <text x="350" y="30" text-anchor="middle" font-size="16" font-weight="600" fill="#1d1d1f">Bookrank</text>

  <!-- connectors: drawn first so boxes sit on top -->
  <path d="M265 94 L210 150" stroke="#d1d1d6" stroke-width="1.5" fill="none"/>
  <path d="M435 94 L490 150" stroke="#d1d1d6" stroke-width="1.5" fill="none"/>
  <path d="M210 192 L210 248" stroke="#d1d1d6" stroke-width="1.5" fill="none"/>
  <path d="M490 192 L490 248" stroke="#d1d1d6" stroke-width="1.5" fill="none"/>
  <path d="M95 94 L95 346" stroke="#d1d1d6" stroke-width="1.5" fill="none"/>
  <path d="M605 94 L605 346" stroke="#d1d1d6" stroke-width="1.5" fill="none"/>

  <!-- row 1: clients -->
  <rect x="20" y="52" width="150" height="42" rx="10" fill="#f5f5f7" stroke="#d1d1d6"/>
  <text x="95" y="72" text-anchor="middle" font-size="12" font-weight="600" fill="#1d1d1f">index.html</text>
  <text x="95" y="86" text-anchor="middle" font-size="9.5" fill="#6e6e73">landing + cover wall</text>

  <rect x="190" y="52" width="150" height="42" rx="10" fill="#f5f5f7" stroke="#d1d1d6"/>
  <text x="265" y="72" text-anchor="middle" font-size="12" font-weight="600" fill="#1d1d1f">rankings.html</text>
  <text x="265" y="86" text-anchor="middle" font-size="9.5" fill="#6e6e73">the shelf, search, sort</text>

  <rect x="360" y="52" width="150" height="42" rx="10" fill="#f5f5f7" stroke="#d1d1d6"/>
  <text x="435" y="72" text-anchor="middle" font-size="12" font-weight="600" fill="#1d1d1f">library.html</text>
  <text x="435" y="86" text-anchor="middle" font-size="9.5" fill="#6e6e73">chapter summaries</text>

  <rect x="530" y="52" width="150" height="42" rx="10" fill="#f5f5f7" stroke="#d1d1d6"/>
  <text x="605" y="72" text-anchor="middle" font-size="12" font-weight="600" fill="#1d1d1f">ios/Bookrank</text>
  <text x="605" y="86" text-anchor="middle" font-size="9.5" fill="#6e6e73">SwiftUI · iOS + Mac</text>

  <!-- row 2: pipeline -->
  <rect x="110" y="150" width="200" height="42" rx="10" fill="#fbbf24" fill-opacity=".15" stroke="#fbbf24"/>
  <text x="210" y="170" text-anchor="middle" font-size="12" font-weight="600" fill="#1d1d1f">scripts/fetch-covers.py</text>
  <text x="210" y="184" text-anchor="middle" font-size="9.5" fill="#6e6e73">resolves + wires covers · covers.json cache</text>

  <rect x="390" y="150" width="200" height="42" rx="10" fill="#fbbf24" fill-opacity=".15" stroke="#fbbf24"/>
  <text x="490" y="170" text-anchor="middle" font-size="12" font-weight="600" fill="#1d1d1f">sync-summaries.sh</text>
  <text x="490" y="184" text-anchor="middle" font-size="9.5" fill="#6e6e73">pulls merged summaries into the repo</text>

  <!-- row 3: sources -->
  <rect x="110" y="248" width="200" height="42" rx="10" fill="#f5f5f7" stroke="#d1d1d6"/>
  <text x="210" y="268" text-anchor="middle" font-size="12" font-weight="600" fill="#1d1d1f">Open Library</text>
  <text x="210" y="282" text-anchor="middle" font-size="9.5" fill="#6e6e73">search API + cover CDN · hotlinked</text>

  <rect x="390" y="248" width="200" height="42" rx="10" fill="#f5f5f7" stroke="#d1d1d6"/>
  <text x="490" y="268" text-anchor="middle" font-size="12" font-weight="600" fill="#1d1d1f">iCloud Drive</text>
  <text x="490" y="282" text-anchor="middle" font-size="9.5" fill="#6e6e73">photographed chapters, summarized</text>

  <!-- row 4: distribution -->
  <rect x="20" y="346" width="190" height="42" rx="10" fill="#f5f5f7" stroke="#d1d1d6"/>
  <text x="115" y="366" text-anchor="middle" font-size="12" font-weight="600" fill="#1d1d1f">GitHub Pages</text>
  <text x="115" y="380" text-anchor="middle" font-size="9.5" fill="#6e6e73">bookrank.heyitsmejosh.com</text>

  <rect x="510" y="346" width="170" height="42" rx="10" fill="#f5f5f7" stroke="#d1d1d6"/>
  <text x="595" y="366" text-anchor="middle" font-size="12" font-weight="600" fill="#1d1d1f">App Store</text>
  <text x="595" y="380" text-anchor="middle" font-size="9.5" fill="#6e6e73">Bookrank · 6792376485</text>
</svg>
